HIERARCHY
ROOT Hips
{
	OFFSET 0.000000 0.000000 0.000000
	CHANNELS 6 Xposition Yposition Zposition Xrotation Yrotation Zrotation
	JOINT LeftUpLeg_virtual
	{
		OFFSET 0.000000 0.000000 0.000000
		CHANNELS 3 Xrotation Yrotation Zrotation
		JOINT LeftUpLeg
		{
			OFFSET 15.427100 -6.655098 0.678600
			CHANNELS 3 Xrotation Yrotation Zrotation
			JOINT LeftLeg
			{
				OFFSET 4.081073 -39.591068 13.024000
				CHANNELS 3 Xrotation Yrotation Zrotation
				JOINT LeftFoot
				{
					OFFSET -4.081074 -37.707932 -15.979700
					CHANNELS 3 Xrotation Yrotation Zrotation
					JOINT LeftToeBase
					{
						OFFSET 5.346399 -15.068900 20.645000
						CHANNELS 3 Xrotation Yrotation Zrotation
						JOINT LeftToe_End
						{
							OFFSET 2.754700 0.931300 11.300900
							CHANNELS 3 Xrotation Yrotation Zrotation
							End Site
							{
								OFFSET 0 0 0
							}
						}
					}
				}
			}
		}
	}
	JOINT RightUpLeg_virtual
	{
		OFFSET 0.000000 0.000000 0.000000
		CHANNELS 3 Xrotation Yrotation Zrotation
		JOINT RightUpLeg
		{
			OFFSET -15.569500 -6.655098 0.678600
			CHANNELS 3 Xrotation Yrotation Zrotation
			JOINT RightLeg
			{
				OFFSET -4.081825 -39.591045 13.023800
				CHANNELS 3 Xrotation Yrotation Zrotation
				JOINT RightFoot
				{
					OFFSET 4.081824 -37.707954 -15.979600
					CHANNELS 3 Xrotation Yrotation Zrotation
					JOINT RightToeBase
					{
						OFFSET -5.346400 -15.068900 20.645000
						CHANNELS 3 Xrotation Yrotation Zrotation
						JOINT RightToe_End
						{
							OFFSET -2.754700 0.931300 11.300900
							CHANNELS 3 Xrotation Yrotation Zrotation
							End Site
							{
								OFFSET 0 0 0
							}
						}
					}
				}
			}
		}
	}
	JOINT Spine_virtual
	{
		OFFSET 0.000000 0.000000 0.000000
		CHANNELS 3 Xrotation Yrotation Zrotation
		JOINT Spine
		{
			OFFSET -0.279200 12.230698 -2.892100
			CHANNELS 3 Xrotation Yrotation Zrotation
			JOINT Spine1
			{
				OFFSET -0.232667 10.192268 -1.242267
				CHANNELS 3 Xrotation Yrotation Zrotation
				JOINT Spine1_split
				{
					OFFSET -0.232667 10.192268 -1.242267
					CHANNELS 3 Xrotation Yrotation Zrotation
					JOINT Spine2
					{
						OFFSET -0.232667 10.192268 -1.242267
						CHANNELS 3 Xrotation Yrotation Zrotation
						JOINT Neck_virtual
						{
							OFFSET 0.000000 0.000000 0.000000
							CHANNELS 3 Xrotation Yrotation Zrotation
							JOINT Neck
							{
								OFFSET -0.418800 17.814194 8.416900
								CHANNELS 3 Xrotation Yrotation Zrotation
								JOINT Head
								{
									OFFSET 0.000000 7.031097 3.806800
									CHANNELS 3 Xrotation Yrotation Zrotation
									JOINT HeadTop_End
									{
										OFFSET 0.000000 24.646606 12.978600
										CHANNELS 3 Xrotation Yrotation Zrotation
										End Site
										{
											OFFSET 0 0 0
										}
									}
								}
							}
						}
						JOINT LeftShoulder_virtual
						{
							OFFSET 0.000000 0.000000 0.000000
							CHANNELS 3 Xrotation Yrotation Zrotation
							JOINT LeftShoulder
							{
								OFFSET 8.476499 7.247704 -3.868750
								CHANNELS 3 Xrotation Yrotation Zrotation
								JOINT LeftShoulder_split
								{
									OFFSET 8.476499 7.247704 -3.868750
									CHANNELS 3 Xrotation Yrotation Zrotation
									JOINT LeftArm
									{
										OFFSET 9.308998 -2.777710 0.208600
										CHANNELS 3 Xrotation Yrotation Zrotation
										JOINT LeftForeArm
										{
											OFFSET 29.972298 0.000000 0.000000
											CHANNELS 3 Xrotation Yrotation Zrotation
											JOINT LeftHand
											{
												OFFSET 26.026505 0.000000 0.000000
												CHANNELS 3 Xrotation Yrotation Zrotation
												End Site
												{
													OFFSET 0 0 0
												}
											}
										}
									}
								}
							}
						}
						JOINT RightShoulder_virtual
						{
							OFFSET 0.000000 0.000000 0.000000
							CHANNELS 3 Xrotation Yrotation Zrotation
							JOINT RightShoulder
							{
								OFFSET -7.570500 7.247704 -3.868750
								CHANNELS 3 Xrotation Yrotation Zrotation
								JOINT RightShoulder_split
								{
									OFFSET -7.570500 7.247704 -3.868750
									CHANNELS 3 Xrotation Yrotation Zrotation
									JOINT RightArm
									{
										OFFSET -9.308998 -2.777710 0.208500
										CHANNELS 3 Xrotation Yrotation Zrotation
										JOINT RightForeArm
										{
											OFFSET -29.972300 0.000000 0.000000
											CHANNELS 3 Xrotation Yrotation Zrotation
											JOINT RightHand
											{
												OFFSET -26.026505 0.000000 0.000000
												CHANNELS 3 Xrotation Yrotation Zrotation
												End Site
												{
													OFFSET 0 0 0
												}
											}
										}
									}
								}
							}
						}
					}
				}
			}
		}
	}
}
MOTION
Frames: 7
Frame Time: 0.03333333
108.002846 83.925262 200.545181 0.000000 0.000000 0.000000 -111.705531 -62.833547 -176.760460 -50.154048 -5.131619 35.149875 84.385047 -8.587861 -9.145397 11.405810 -10.464856 -1.079884 -2.650200 -0.312411 -4.887769 0.000000 0.000000 0.000000 -87.595605 -69.387899 -158.210458 -53.139049 -4.549963 -53.805543 44.783341 9.036077 -5.275318 9.451708 -2.258207 11.947569 9.491906 0.878696 -2.294804 0.000000 0.000000 0.000000 -112.802172 -62.301338 -176.114515 15.531507 4.782621 3.417588 -2.490797 1.610880 6.902588 0.325102 1.519021 1.539679 0.000000 0.000000 0.000000 0.700078 1.640902 5.676625 20.126469 5.298436 11.426290 14.603537 37.761777 -19.314334 0.000000 0.000000 0.000000 0.254709 1.470286 6.446309 1.880426 -11.097556 10.891319 3.396604 1.706480 1.363293 1.302018 12.821969 -1.685887 3.847538 -35.286789 -0.548235 0.000000 0.000000 0.000000 -1.471484 2.088643 6.275989 1.885147 4.765659 17.275177 -0.388815 -1.400959 -0.391929 -21.936701 21.923505 16.298167 2.483945 20.921151 -2.480986 0.000000 0.000000 0.000000 
115.074631 77.649864 211.593842 0.000000 0.000000 0.000000 -111.386363 -59.477506 -176.837573 -50.336138 -4.679094 31.575712 83.939364 -5.842530 -7.449085 15.346136 -7.638680 -0.996199 -0.509811 -0.564790 -4.205123 0.000000 0.000000 0.000000 -92.735015 -65.019385 -164.050899 -51.862890 -4.735641 -49.876476 38.953266 7.194545 -5.431541 15.609486 -4.058945 10.018127 8.228968 0.499821 -0.558738 0.000000 0.000000 0.000000 -114.051742 -58.581016 -178.803492 16.183662 4.854573 2.970905 -1.760405 2.498804 6.203697 0.183786 1.148463 2.030489 0.000000 0.000000 0.000000 0.730350 2.529917 4.804824 20.215726 5.264101 9.231678 14.225669 34.941496 -18.466087 0.000000 0.000000 0.000000 0.507409 2.287894 5.409182 2.138249 -10.408545 9.821798 1.819277 2.535271 1.207912 -1.302244 17.691976 -0.701469 4.144672 -36.187544 -0.412774 0.000000 0.000000 0.000000 -1.323136 3.061773 5.423781 1.567414 7.051518 19.013623 -0.830083 -3.277021 -0.307251 -23.695916 22.056125 18.967789 2.980836 27.504098 -2.293287 0.000000 0.000000 0.000000 
122.251846 68.782898 223.807648 0.000000 0.000000 0.000000 -112.619151 -52.893535 -177.677590 -49.817600 -2.909629 29.130969 81.555785 -2.446416 -5.446921 17.189319 -3.266351 -3.284454 1.770351 -0.640096 -3.114950 0.000000 0.000000 0.000000 -100.514778 -58.128113 -172.253778 -52.432190 0.006012 -43.583628 34.388633 5.615107 -6.429397 21.699272 -3.907173 10.812533 6.666667 -0.077329 0.949236 0.000000 0.000000 0.000000 -114.377959 -52.764919 -179.656706 17.065943 4.471532 2.475762 -0.887294 3.303614 5.911121 0.628692 0.626859 2.192103 0.000000 0.000000 0.000000 0.714062 3.424475 4.462546 19.367087 4.885452 7.297051 13.360936 31.823327 -17.371784 0.000000 0.000000 0.000000 0.755053 3.113182 4.999041 2.273160 -8.369083 8.062895 1.198048 3.506220 0.130407 -4.483884 23.150399 -0.233349 3.685337 -43.195851 -0.638774 0.000000 0.000000 0.000000 -1.224597 3.962413 5.163022 1.325332 8.459204 20.214536 -1.118431 -3.972030 0.238919 -26.387464 20.667714 22.576309 2.886114 36.477681 -1.607202 0.000000 0.000000 0.000000 
129.390213 57.421871 236.441711 0.000000 0.000000 0.000000 -114.993024 -43.154085 -179.031129 -49.168985 0.768905 28.791290 77.417353 0.044003 -3.318124 16.511824 0.979260 -7.501602 2.974574 -0.658256 -1.338514 0.000000 0.000000 0.000000 -107.206028 -48.687156 -179.421638 -56.990460 8.107369 -34.519172 32.509918 5.009365 -7.947923 26.164703 -1.210492 14.130117 5.064103 -0.669018 1.504314 0.000000 0.000000 0.000000 -114.332476 -45.048175 -179.796629 18.067968 3.379876 1.929842 0.064369 3.798363 6.124471 0.890537 -1.120674 2.113562 0.000000 0.000000 0.000000 0.770144 4.124948 4.716524 18.206718 4.175279 5.912247 12.076487 28.289752 -16.059983 0.000000 0.000000 0.000000 1.016620 3.813083 5.310508 2.468900 -5.990958 5.543866 1.901187 4.014213 -1.366643 -6.581885 27.571006 -0.985747 2.883803 -54.705700 -1.177597 0.000000 0.000000 0.000000 -1.089235 4.647807 5.613287 1.293430 8.538029 20.841067 -1.379660 -3.338323 0.711538 -28.954207 18.143778 26.851806 1.803288 46.570221 -0.201207 0.000000 0.000000 0.000000 
136.573196 45.302498 248.695984 0.000000 0.000000 0.000000 -117.265073 -31.868966 179.617911 -50.113019 6.152089 31.573557 73.142201 0.641171 -2.067515 14.197522 4.375306 -11.909727 3.180209 -0.559192 0.852585 0.000000 0.000000 0.000000 -111.406102 -37.549361 175.961232 -67.201541 15.826797 -22.059523 35.098604 4.883477 -9.346996 27.813872 2.669884 18.111672 4.180254 -1.074655 1.131954 0.000000 0.000000 0.000000 -114.186358 -35.719154 -179.631462 18.990639 1.681170 1.446837 0.986620 3.958568 6.664605 1.141037 -2.899398 1.923635 0.000000 0.000000 0.000000 0.916014 4.517190 5.326155 17.561627 3.043680 5.372397 11.156234 24.329410 -14.841622 0.000000 0.000000 0.000000 1.363240 4.201216 6.032779 2.889332 -4.029108 2.325462 3.700871 3.385420 -2.453209 -6.808394 28.327757 -2.999142 3.175100 -65.536000 -1.102400 0.000000 0.000000 0.000000 -0.706899 5.043239 6.441905 1.450415 6.961222 21.322505 -1.646629 -2.129962 0.936689 -30.352650 15.522201 31.193139 -0.468623 55.881773 1.947320 0.000000 0.000000 0.000000 
143.821014 34.513561 260.178162 0.000000 0.000000 0.000000 -118.584597 -20.793495 178.256340 -52.708867 11.807478 38.014159 70.768218 -0.357267 -2.795336 11.508206 6.919553 -14.386921 3.415398 -0.356874 2.693072 0.000000 0.000000 0.000000 -112.596413 -26.778204 173.289672 -80.769378 18.596785 -7.498681 41.942320 4.387049 -10.101500 26.320189 6.025647 20.816934 4.574624 -1.206971 0.253716 0.000000 0.000000 0.000000 -113.675146 -26.144839 -179.185204 19.465749 -0.426609 1.104233 1.750643 3.831665 7.127330 1.093581 -4.912514 1.410615 0.000000 0.000000 0.000000 1.164862 4.576581 5.864241 17.868241 1.888679 5.760947 11.166410 20.075391 -13.775356 0.000000 0.000000 0.000000 1.858699 4.299177 6.584533 3.550502 -3.419121 -1.216632 5.376412 2.045840 -2.620951 -4.519569 25.122156 -5.942615 5.599953 -71.453662 0.882342 0.000000 0.000000 0.000000 -0.044476 5.121668 7.148640 1.713965 3.696101 22.009038 -1.583186 -0.285763 0.523857 -30.294505 13.716239 34.837711 -3.615618 62.998837 4.564287 0.000000 0.000000 0.000000 
150.874130 26.896103 269.726868 0.000000 0.000000 0.000000 -118.603435 -12.152020 176.814145 -55.944724 15.859132 46.749643 70.887801 -1.873542 -5.688475 8.895270 9.048431 -13.013429 4.553518 0.038858 3.329146 0.000000 0.000000 0.000000 -111.415043 -17.838060 172.165696 -92.223816 15.266844 4.657945 52.231539 2.945265 -9.444642 23.209418 7.689634 20.550629 5.092150 -1.095941 -0.330267 0.000000 0.000000 0.000000 -113.323951 -17.493303 -179.519665 18.994870 -2.487659 1.047587 2.205780 3.603443 7.088260 0.722151 -7.473183 0.801046 0.000000 0.000000 0.000000 1.518399 4.399426 5.874115 19.007494 0.672533 6.755771 12.209942 15.685249 -12.809798 0.000000 0.000000 0.000000 2.363448 4.156454 6.459237 4.340427 -4.319561 -4.190203 6.334656 0.496401 -2.047739 -0.413333 18.259636 -8.258949 8.548521 -72.604979 3.576993 0.000000 0.000000 0.000000 0.806541 5.063166 7.248745 2.202445 -1.075219 22.954212 -1.725986 1.043525 -0.410688 -29.330926 13.107232 37.021353 -6.376418 67.089096 6.411696 0.000000 0.000000 0.000000 
